<svg width="200" height="72" viewBox="0 0 200 72" fill="none" xmlns="http://www.w3.org/2000/svg">
<g clip-path="url(#clip0_1_3)">
<g clip-path="url(#clip1_1_3)">
<path d="M37.1917 33.425C36.5167 29.7917 31.7667 27.7917 27.05 30.3583L28.2667 34.5083L30.1833 40.65L31.05 43.4417C34.575 41.175 38.1333 38.45 37.1917 33.4167V33.425ZM32.5083 39.0083C31.9715 37.2385 31.4242 35.4718 30.8667 33.7083L30.375 32.0167C31.2978 31.8176 32.2599 31.9138 33.125 32.2917C33.5667 32.5083 34.3417 32.9917 34.5083 33.925C34.9 36.0083 34.2 37.5 32.5083 38.9917V39.0083ZM108.408 27.6583C107.757 27.0582 106.989 26.5987 106.152 26.3083C105.316 26.018 104.428 25.903 103.545 25.9707C102.662 26.0383 101.803 26.287 101.02 26.7014C100.237 27.1158 99.5482 27.6869 98.9959 28.3792C98.4435 29.0714 98.0397 29.87 97.8095 30.7252C97.5793 31.5804 97.5277 32.4738 97.6578 33.3498C97.788 34.2258 98.0972 35.0656 98.5661 35.8169C99.035 36.5682 99.6536 37.2149 100.383 37.7167L108.867 28.1083C108.719 27.9528 108.567 27.8027 108.408 27.6583ZM100.4 34.425C99.9896 33.6764 99.8191 32.8198 99.9115 31.9711C100.004 31.1224 100.355 30.3226 100.917 29.6798C101.478 29.0371 102.224 28.5824 103.053 28.3774C103.882 28.1723 104.753 28.2268 105.55 28.5333L100.4 34.425ZM163.325 36.3C163.402 36.5851 163.439 36.8797 163.433 37.175C163.35 38.9667 161.658 40.3583 159.65 40.2583C157.642 40.1917 156.067 38.6667 156.15 36.8833C156.208 35.1917 157.708 33.8667 159.558 33.7833C159.197 33.7019 158.829 33.6544 158.458 33.6417C155.083 33.5 152.333 35.8917 152.225 38.8583C152.083 42.025 154.633 44.625 157.942 44.7667C161.325 44.8917 164.067 42.5 164.192 39.3417C164.228 38.2633 163.919 37.2005 163.325 36.3ZM61.2083 39.9333C61.2083 41.7333 59.5667 43.1833 57.5583 43.1833C55.5417 43.1833 53.9083 41.7417 53.9083 39.9333C53.9083 38.25 55.35 36.8667 57.1917 36.7C56.8288 36.6336 56.4606 36.6002 56.0917 36.6C52.725 36.6 50.0667 39.1 50.0667 42.0667C50.0667 45.25 52.7333 47.7333 56.0333 47.7333C59.4083 47.7333 62.0583 45.25 62.0583 42.0667C62.0542 40.9919 61.7068 39.9467 61.0667 39.0833C61.15 39.3333 61.2083 39.625 61.2083 39.9333ZM184.275 21.725L182.775 27.8833L181.392 21.05L162.908 16.9917L163.042 27.2667L165.825 27.8917L165.625 29.75L165.542 29.6917C162.092 27.875 157.817 27.6917 153.792 29.2083C152.433 29.7083 151.175 30.4 150.042 31.225L147.25 13.625H134.958L134.625 15.6583H121.683L120.208 24.7L119.125 23.375C117.585 21.4884 115.647 19.965 113.451 18.9135C111.254 17.8619 108.852 17.3081 106.417 17.2917L117.4 11.3833L109.75 -0.0333328L95.8917 15.9083L98.2833 18.825C96.2077 19.6622 94.3039 20.874 92.6667 22.4L80.8 11.8667L76.6583 19.8083L76.8167 12.175L58.2667 18.1083L58.7417 28.075L61.9 27.2583L62.3667 32.3C58.7583 30.6917 54.4167 30.7167 50.4 32.4167C49.2257 32.9303 48.1108 33.5702 47.075 34.325C47.81 31.3932 47.5851 28.3029 46.4333 25.5083C45.0443 22.3316 42.6529 19.6973 39.625 18.0083C37.4596 16.5935 34.9889 15.7138 32.4167 15.4417C26 14.3167 18.2833 15.4667 10.7 18.7083C8.01574 19.8346 5.42915 21.1809 2.96668 22.7333L1.52588e-05 24.6167L1.79168 27.6417L7.35002 37.0333C7.35002 37.0333 9.05002 39.9167 9.05835 39.9083L12.0667 38.4333L12.4833 38.2417L26.3 69.075L27.6333 72.0333L30.7167 71.05L38.1833 68.65L41.4667 67.6083L40.6 64.275L36.6333 49.0333C37.775 48.1917 38.8333 47.2917 39.825 46.3583C39.6 48.1833 39.7167 50.025 40.2167 51.7917C41.25 55.4833 43.6833 58.4 47.0333 60.0083C50.6583 61.7583 55.075 61.7583 59.1667 60.025C61.225 59.1583 63.0583 57.8833 64.5917 56.3667L65.1583 62.4333L78.2417 60.5083L78.225 48.7833L105.575 62.2833V49.2C109.534 48.8062 113.362 47.5672 116.8 45.5667L115.65 52.5917L130.4 54.9167L131.208 49.6083L135.05 56.725L137.408 52.1833L138.275 59.6417L154.983 62.575L154.1 56.9583C157.083 57.2774 160.094 56.7031 162.75 55.3083L162.083 61.2917L173.217 62.8667L173.3 67.425L184.883 71.075L200 25.5417L184.275 21.725ZM118.95 28.475L119.717 27.6667L118.783 33.4167L116.375 31.2333L118.95 28.475ZM109.142 5.03334L113.2 10.5417L101.617 16.2833L100.808 15.0667L109.142 5.03334ZM32.4583 47.4583L37.0833 65.1917L29.6 67.5833L14.2583 33.3167C13.425 33.7583 11.8917 34.4833 10.4667 35.175L4.91668 25.7917C7.13335 24.3833 9.55002 23.1333 12.125 22.0417C19.3583 18.9667 26.2667 18.0417 31.7917 19.025C33.7333 19.25 35.8 19.8167 37.625 21.025C40.1083 22.425 42 24.4083 43.1 26.95C45.7667 33.1167 41.3 42.0083 32.4583 47.4583ZM66.8417 44.3083C66.7583 46.9583 65.7833 49.5917 64.1667 51.8333C62.5835 54.0503 60.4254 55.7935 57.925 56.875C51.4333 59.625 44.95 56.875 43.225 50.7083C41.5333 44.7583 45.4417 37.6667 51.725 34.9583C55.75 33.275 59.775 33.6667 62.6583 35.625C64.4333 36.8417 65.8 38.6583 66.4333 40.9333C66.7431 42.0333 66.8808 43.1746 66.8417 44.3167V44.3083ZM102.142 56.8417L75.025 43.2667L75.075 57.4917L68.05 58.45L67.5583 52.5917C69.725 48.875 70.5167 44.4917 69.3917 40.475C68.7965 38.3266 67.647 36.3724 66.0583 34.8083L65.05 22.8667L61.9083 23.6833L61.7667 20.6667L73.0333 17.3L73.725 28.9333L82.0333 17.2667L90.15 24.9917L78.8 36.9583L89.4667 41.1833C90.65 43.4333 92.4667 45.35 94.75 46.7667C96.95 48.125 99.4833 48.9333 102.158 49.1917V56.8417H102.142ZM88.0583 37.175L84.275 35.725L87.8 32.3083C87.6417 33.875 87.7167 35.5167 88.05 37.175H88.0583ZM117.575 40.7333C114.975 42.8917 111.992 44.2917 108.083 45.2333C107.255 45.4329 106.414 45.5749 105.567 45.6583C99.3417 46.2667 94.1167 43.4083 92.1333 38.775C91.8883 38.2134 91.6958 37.6304 91.5583 37.0333C90.6417 33.1333 91.425 29.6417 93.35 26.9083C93.9135 26.1077 94.571 25.3775 95.3083 24.7333C97.2457 23.0458 99.5702 21.8635 102.075 21.2917C108.008 19.8667 113.233 21.675 116.433 25.6L105.142 37.6333C106.109 37.7136 107.082 37.6204 108.017 37.3583C110.708 36.7 112.217 35.275 113.542 33.725L118.058 37.775L119.425 39.025C118.837 39.625 118.22 40.1952 117.575 40.7333ZM141.55 56.7917L139.1 40.5083L135.617 49.4917L130.408 38.2583H130.35L128.3 51.2583L119.625 49.7583L120.842 42.5083C121.17 42.198 121.492 41.8813 121.808 41.5583L124.625 38.6583L121.883 36.2083L124.8 18.9333H133.55L135.733 30.9L138.183 17.0417H144.45L147.05 33.925C143.75 37.6833 142.133 42.7583 143.25 47.3833C143.681 49.2898 144.559 51.0663 145.813 52.5661C147.066 54.0659 148.659 55.2458 150.458 56.0083L150.792 58.2L141.55 56.7917ZM163.175 51.4833C162.205 52.1734 161.149 52.7336 160.033 53.15C157.99 53.9686 155.756 54.1911 153.592 53.7917C152.249 53.5355 150.976 52.9957 149.858 52.2083C148.045 50.8807 146.772 48.9421 146.275 46.75C145.608 43.95 146.217 40.95 147.725 38.3167C148.483 37.0333 149.45 35.8333 150.592 34.7917C151.858 33.65 153.342 32.7083 154.983 32.0833C158.808 30.65 162.583 31.15 165.233 33.05C167.007 34.3236 168.256 36.1983 168.75 38.325C169.567 41.7083 168.6 45.3083 166.467 48.2167C165.551 49.4742 164.439 50.577 163.175 51.4833ZM182.7 66.825L176.283 64.9167L175.733 41.2667L172.5 59.5167L165.5 58.3917L166.017 53.1417C170.575 49.275 173 43.1833 171.675 37.675C171.122 35.2911 169.861 33.1299 168.058 31.475L168.65 25.2833L166.008 24.575L166.175 21.275L178.242 23.6917L182.3 42.925L186.458 25.6833L195.625 27.7167L182.7 66.825Z" fill="#FECA1B"/>
</g>
</g>
<defs>
<clipPath id="clip0_1_3">
<rect width="200" height="72" fill="white"/>
</clipPath>
<clipPath id="clip1_1_3">
<rect width="200" height="200" fill="white" transform="translate(0 -64)"/>
</clipPath>
</defs>
</svg>
